<svg xmlns="http://www.w3.org/2000/svg" version="1.1" xmlns:xlink="http://www.w3.org/1999/xlink" xmlns:svgjs="http://svgjs.dev/svgjs" width="1000" height="744" viewBox="0 0 1000 744"><g transform="matrix(1,0,0,1,-0.6060606060606233,-0.020311242792786288)"><svg viewBox="0 0 396 295" data-background-color="#f9f9f9" preserveAspectRatio="xMidYMid meet" height="744" width="1000" xmlns="http://www.w3.org/2000/svg" xmlns:xlink="http://www.w3.org/1999/xlink"><defs></defs><g id="tight-bounds" transform="matrix(1,0,0,1,0.2400000000000091,0.008053516967578389)"><svg viewBox="0 0 395.52 294.983524323457" height="294.983524323457" width="395.52"><g><svg viewBox="0 0 395.52 294.983524323457" height="294.983524323457" width="395.52"><g transform="matrix(1,0,0,1,0,195.03345157179757)"><svg viewBox="0 0 395.52 99.95007275165942" height="99.95007275165942" width="395.52"><g><svg viewBox="0 0 395.52 99.95007275165942" height="99.95007275165942" width="395.52"><g><svg viewBox="0 0 395.52 99.95007275165942" height="99.95007275165942" width="395.52"><g transform="matrix(1,0,0,1,0,0)"><svg width="395.52" viewBox="-6.441047403009579 -53.999228310224666 338.3074074030098 85.49215538067274" height="99.95007275165942" data-palette-color="#3a5874"><path d="M44.977 7.881v0c0.083 0.323 0.13 0.572 0.141 0.748v0c-0.145 0.106-0.251 0.227-0.319 0.362-0.067 0.141-0.221 0.226-0.462 0.253v0c0.062 0.507 0.006 0.959-0.167 1.355-0.181 0.391-0.375 0.761-0.58 1.11-0.206 0.349-0.4 0.716-0.584 1.101-0.178 0.376-0.236 0.818-0.174 1.325v0c-0.424 0.385-0.817 0.862-1.18 1.431-0.358 0.561-0.697 0.968-1.017 1.223v0c-0.223 0.202-0.473 0.38-0.75 0.534-0.275 0.161-0.541 0.343-0.799 0.547v0c-0.839 0.671-1.7 1.365-2.581 2.081-0.876 0.715-1.853 1.211-2.931 1.49v0l-0.349 0.09c-0.096 0.162-0.234 0.294-0.414 0.396-0.188 0.097-0.375 0.186-0.561 0.269-0.185 0.082-0.369 0.185-0.55 0.307-0.177 0.115-0.297 0.249-0.361 0.403v0c-0.395-0.036-0.805 0.001-1.231 0.111v0l-0.339 0.088c-0.528 0.274-1.026 0.506-1.494 0.695-0.474 0.191-0.992 0.359-1.553 0.504v0c-0.981 0.253-1.976 0.441-2.984 0.564-1.014 0.124-2.026 0.261-3.033 0.411v0c-0.753-0.329-1.417-0.808-1.993-1.438-0.584-0.634-0.981-1.361-1.193-2.181v0c-0.16-0.62-0.181-1.234-0.062-1.843 0.126-0.604 0.348-1.174 0.663-1.71v0l0.146-0.037c0.29-0.075 0.576-0.221 0.857-0.438 0.277-0.209 0.56-0.351 0.851-0.426v0c0.329-0.085 0.634-0.023 0.916 0.187 0.28 0.203 0.524 0.471 0.733 0.802 0.203 0.333 0.369 0.683 0.498 1.049 0.129 0.366 0.223 0.665 0.284 0.897v0c0.403 0.068 0.812 0.066 1.227-0.007 0.421-0.074 0.845-0.167 1.271-0.276v0c0.42-0.108 0.884-0.256 1.394-0.443 0.518-0.182 1.029-0.4 1.535-0.654 0.512-0.256 0.999-0.53 1.461-0.821 0.468-0.293 0.846-0.618 1.133-0.974v0c1.759-0.626 3.242-1.443 4.449-2.45 1.199-1.012 2.453-2.155 3.762-3.429v0c-0.022-0.38 0.046-0.704 0.204-0.972 0.152-0.266 0.172-0.613 0.062-1.038v0c-0.017-0.065-0.042-0.137-0.077-0.218-0.039-0.072-0.067-0.141-0.084-0.205v0c-0.864-0.652-1.727-1.196-2.591-1.635-0.865-0.445-1.878-0.62-3.038-0.527v0c-0.206-0.264-0.475-0.428-0.809-0.494-0.329-0.073-0.674-0.132-1.037-0.176-0.364-0.051-0.71-0.109-1.037-0.177-0.335-0.072-0.614-0.272-0.836-0.6v0c-0.926 0.067-1.885 0.098-2.879 0.093-0.999-0.004-1.91-0.251-2.731-0.741v0c-0.531 0.103-1.055 0.128-1.572 0.075-0.524-0.057-1.039-0.117-1.543-0.18-0.505-0.062-1.022-0.105-1.551-0.126-0.529-0.022-1.055 0.035-1.578 0.169v0c-0.187-0.193-0.411-0.324-0.67-0.395-0.267-0.076-0.552-0.126-0.855-0.151-0.303-0.025-0.591-0.064-0.867-0.117-0.274-0.046-0.505-0.169-0.694-0.368v0c-0.121 0.066-0.201 0.155-0.24 0.268-0.044 0.122-0.147 0.203-0.309 0.245v0l-0.193 0.05c-0.116-0.183-0.284-0.288-0.505-0.314-0.215-0.034-0.373-0.179-0.474-0.435v0c-0.596 0.119-1.157 0.144-1.685 0.073-0.523-0.078-1.023-0.187-1.499-0.325-0.468-0.134-0.945-0.262-1.431-0.385-0.484-0.116-1.005-0.174-1.564-0.175v0c-0.389-0.175-0.763-0.381-1.12-0.619-0.358-0.238-0.749-0.302-1.175-0.193v0c-0.097 0.025-0.269 0.104-0.518 0.237v0c-0.216-0.571-0.569-0.924-1.058-1.059-0.489-0.135-1.005-0.24-1.547-0.313v0c-0.543-0.769-1.176-1.407-1.899-1.916-0.73-0.507-1.492-0.954-2.288-1.341v0c0.013-0.217 0.007-0.374-0.018-0.47v0c-0.083-0.323-0.237-0.586-0.462-0.79-0.225-0.204-0.459-0.364-0.702-0.48v0c-0.838-1.353-1.438-2.731-1.8-4.131v0c-0.506-1.962-0.541-3.898-0.105-5.808 0.43-1.908 1.465-3.528 3.104-4.86v0c-0.028-0.268 0.003-0.521 0.094-0.758 0.098-0.232 0.13-0.484 0.093-0.757v0c0.297-0.077 0.509-0.2 0.638-0.371 0.128-0.171 0.247-0.35 0.357-0.537 0.11-0.187 0.229-0.366 0.357-0.536 0.135-0.172 0.327-0.308 0.577-0.407v0c0.968-1.4 2.065-2.616 3.293-3.649 1.234-1.035 2.493-2.103 3.778-3.206v0c0.264-0.206 0.446-0.514 0.546-0.925v0l0.3-0.078c0.323-0.083 0.556-0.219 0.701-0.408 0.142-0.195 0.403-0.307 0.781-0.336v0c0.079-0.227 0.217-0.4 0.413-0.519 0.195-0.126 0.393-0.239 0.594-0.34 0.2-0.107 0.384-0.233 0.552-0.38 0.169-0.147 0.259-0.329 0.273-0.545v0l0.348-0.09c0.555-0.143 1.072-0.37 1.55-0.679 0.476-0.316 0.946-0.657 1.408-1.024v0l0.349-0.09c0.652-0.168 1.234-0.449 1.745-0.843 0.505-0.392 1.071-0.72 1.697-0.986v0c0.248-0.133 0.508-0.217 0.782-0.253 0.267-0.034 0.532-0.086 0.797-0.154v0c0.161-0.042 0.351-0.108 0.568-0.198 0.224-0.092 0.364-0.232 0.419-0.418v0l0.097-0.025c0.2-0.052 0.333-0.017 0.398 0.103 0.066 0.121 0.179 0.16 0.341 0.119v0c0.226-0.058 0.447-0.15 0.662-0.274 0.209-0.123 0.43-0.214 0.663-0.275v0c0.981-0.253 1.978-0.407 2.989-0.461 1.02-0.05 2.022-0.116 3.006-0.198v0c0.173 0.375 0.419 0.608 0.738 0.698 0.319 0.09 0.658 0.161 1.015 0.213v0l0.05 0.193c0.067 0.258 0.189 0.454 0.369 0.587v0c-0.017 0.493-0.158 0.895-0.423 1.204-0.269 0.317-0.58 0.608-0.932 0.87v0c0.201 0.086 0.348 0.241 0.44 0.465 0.091 0.218 0.161 0.423 0.211 0.617v0l0.153 0.591-0.265 0.016c-0.523 0.135-0.721 0.448-0.594 0.939v0c-0.486-0.15-0.993-0.191-1.519-0.125-0.522 0.059-1.028 0.152-1.519 0.279v0c-0.658 0.17-1.339 0.373-2.042 0.609-0.71 0.238-1.416 0.41-2.119 0.516v0c-0.18 0.398-0.444 0.721-0.793 0.969-0.355 0.25-0.73 0.426-1.123 0.528v0c-0.426 0.11-0.856 0.125-1.29 0.044-0.44-0.079-0.791-0.278-1.053-0.596v0c-0.178-0.023-0.332-0.018-0.46 0.015v0l-0.446 0.115c-0.523 0.135-1.021 0.326-1.494 0.572-0.48 0.248-0.963 0.51-1.45 0.787-0.485 0.283-0.959 0.564-1.424 0.843-0.472 0.28-0.965 0.504-1.48 0.671v0c-0.127 0.308-0.342 0.556-0.644 0.744-0.304 0.182-0.52 0.427-0.647 0.735v0c-0.649 0.312-1.215 0.696-1.696 1.151-0.475 0.453-0.928 0.925-1.36 1.415v0l-1.252 1.428c-0.407 0.449-0.891 0.87-1.451 1.263v0c-0.332 0.609-0.656 1.113-0.973 1.511-0.312 0.39-0.752 0.783-1.318 1.176v0c-0.354 0.229-0.523 0.479-0.508 0.751 0.017 0.278-0.055 0.575-0.214 0.892v0c-0.134 0.282-0.324 0.517-0.572 0.705-0.256 0.183-0.446 0.432-0.572 0.747v0c-0.103 0.268-0.157 0.567-0.16 0.899-0.004 0.332-0.016 0.658-0.036 0.98-0.02 0.322-0.059 0.638-0.117 0.949-0.057 0.311-0.194 0.597-0.408 0.859v0c0.033 0.129 0.058 0.264 0.073 0.405 0.02 0.132 0.043 0.247 0.068 0.344v0c0.118 0.458 0.296 0.908 0.535 1.349 0.233 0.449 0.425 0.899 0.575 1.349v0c0.953 0.973 1.992 1.81 3.116 2.511 1.119 0.709 2.287 1.324 3.502 1.843 1.217 0.526 2.462 0.989 3.736 1.39 1.276 0.407 2.537 0.798 3.783 1.172v0c0.385-0.134 0.755-0.184 1.107-0.151 0.358 0.025 0.721 0.007 1.091-0.055v0c0.464 0.197 0.978 0.309 1.543 0.335v0l1.706 0.087c0.565 0.026 1.12 0.083 1.665 0.169 0.546 0.086 1.026 0.269 1.442 0.547v0c0.17-0.009 0.329-0.006 0.478 0.011 0.141 0.012 0.292-0.003 0.454-0.045v0c0.2-0.052 0.3-0.146 0.298-0.283v0c1.615 0.175 3.213 0.417 4.793 0.725 1.574 0.31 3.191 0.44 4.852 0.39v0c0.761 0.361 1.567 0.642 2.417 0.842 0.857 0.199 1.712 0.405 2.566 0.619 0.862 0.218 1.696 0.475 2.502 0.769 0.806 0.295 1.555 0.704 2.248 1.227v0c0.231 0.601 0.524 1.163 0.878 1.684 0.36 0.513 0.624 1.099 0.795 1.757zM83.896-45.771v0c-0.235 0.209-0.501 0.355-0.799 0.439-0.29 0.083-0.589 0.177-0.895 0.282-0.307 0.106-0.587 0.231-0.84 0.375-0.246 0.143-0.416 0.361-0.508 0.654v0c-0.385-0.28-0.798-0.504-1.239-0.674-0.44-0.163-0.883-0.345-1.329-0.547v0c-0.311 0.161-0.62 0.351-0.928 0.572-0.308 0.221-0.626 0.359-0.955 0.415v0c-0.237 0.04-0.484-0.003-0.741-0.129v0c-0.236 0.243-0.519 0.452-0.848 0.63-0.328 0.177-0.675 0.347-1.039 0.509-0.371 0.164-0.7 0.358-0.987 0.583-0.288 0.218-0.469 0.505-0.545 0.862v0c-0.095-0.16-0.261-0.186-0.5-0.078-0.239 0.108-0.394 0.049-0.465-0.175v0c-1.003 0.548-2.035 1.046-3.095 1.495-1.052 0.455-2.103 0.922-3.15 1.403-1.047 0.487-2.072 1.005-3.075 1.552-1.004 0.541-1.961 1.162-2.871 1.863v0c-0.027 0.038-0.035 0.094-0.022 0.166v0c0.055 0.329 0.158 0.636 0.307 0.922 0.148 0.279 0.278 0.548 0.389 0.806v0c-0.256 2.132-0.306 4.263-0.149 6.394 0.15 2.131 0.231 4.241 0.244 6.327v0l0.033 0.197c0.029 0.171 0.116 0.285 0.261 0.342 0.146 0.063 0.235 0.194 0.268 0.391v0l-0.031 0.117c-0.148 0.126-0.239 0.287-0.273 0.482-0.036 0.189-0.037 0.385-0.003 0.588v0c0.022 0.131 0.089 0.326 0.2 0.585v0c-0.246 1.989-0.296 3.981-0.149 5.978 0.147 1.997 0.251 4 0.313 6.012v0l0.112 3.368c-0.031 0.215-0.058 0.415-0.082 0.602-0.015 0.192-0.005 0.39 0.029 0.593v0c0.179 1.065 0.427 2.091 0.742 3.08 0.323 0.994 0.541 2.028 0.655 3.104v0c0.381 0.416 0.608 0.841 0.681 1.275v0c0.028 0.164 0.046 0.33 0.054 0.498 0.008 0.168 0.01 0.34 0.006 0.516v0c0.507 0.361 1.069 0.584 1.684 0.669 0.615 0.079 1.186 0.28 1.714 0.604v0l0.034 0.197c0.056 0.335 0.062 0.669 0.016 1.001-0.045 0.332-0.073 0.671-0.082 1.018v0c-0.021 0.274-0.033 0.668-0.034 1.182-0.001 0.514-0.053 0.868-0.156 1.061v0c-0.126 0.258-0.331 0.505-0.615 0.742-0.285 0.237-0.578 0.381-0.88 0.433v0c-0.099 0.017-0.248-0.009-0.449-0.077-0.201-0.068-0.356-0.129-0.468-0.185v0c-0.164 0.028-0.367 0.15-0.607 0.366-0.235 0.209-0.488 0.336-0.757 0.381v0c-0.131 0.022-0.248 0.035-0.349 0.039-0.109-0.002-0.234-0.025-0.376-0.069v0c-0.188-0.313-0.428-0.574-0.72-0.781-0.292-0.208-0.625-0.398-0.999-0.572v0c-0.046-0.472-0.187-0.81-0.424-1.014-0.236-0.197-0.487-0.462-0.753-0.796v0c-0.144-0.456-0.293-0.978-0.447-1.567-0.147-0.59-0.476-0.981-0.988-1.172v0c0.126-0.258 0.155-0.587 0.087-0.988v0c-0.028-0.164-0.081-0.341-0.161-0.531-0.087-0.195-0.221-0.328-0.401-0.399v0l-0.017-0.099c-0.062-0.165-0.027-0.3 0.104-0.402 0.137-0.111 0.191-0.249 0.164-0.413v0l-0.033-0.198c-0.411-1.033-0.714-2.131-0.91-3.294v0c-0.185-1.098-0.336-2.195-0.453-3.291-0.116-1.089-0.299-2.177-0.55-3.264v0c0.168-0.204 0.281-0.497 0.339-0.878 0.056-0.388 0.081-0.805 0.073-1.25-0.007-0.445-0.036-0.876-0.086-1.293-0.057-0.416-0.091-0.762-0.104-1.038v0c-0.149-1.929-0.199-3.847-0.148-5.755 0.057-1.909-0.045-3.836-0.304-5.78v0c0.12-0.291 0.16-0.656 0.119-1.095-0.034-0.441-0.091-0.901-0.171-1.38-0.082-0.486-0.129-0.969-0.143-1.447-0.013-0.478 0.052-0.898 0.194-1.26v0c-0.157-0.934-0.23-1.888-0.219-2.863 0.004-0.981-0.076-1.955-0.239-2.921v0c-0.079-0.467-0.209-0.938-0.39-1.415v0c-0.359-0.082-0.673-0.1-0.942-0.054v0c-0.362 0.061-0.72 0.199-1.076 0.415-0.362 0.217-0.601 0.487-0.716 0.81v0c-0.731 0.157-1.427 0.396-2.09 0.717-0.664 0.315-1.347 0.531-2.05 0.649v0l-0.493 0.084c-0.138 0.023-0.292 0.032-0.462 0.027v0c-0.213 0.137-0.439 0.263-0.677 0.377-0.239 0.108-0.314 0.323-0.225 0.647v0c-1.014 0.279-1.987 0.666-2.918 1.161-0.923 0.5-1.836 1.023-2.738 1.566-0.902 0.544-1.815 1.066-2.738 1.567-0.93 0.501-1.902 0.888-2.917 1.161v0c-0.334 0.225-0.509 0.613-0.524 1.163v0c-0.741 0.057-1.386-0.023-1.937-0.242-0.549-0.212-1.179-0.396-1.889-0.554v0c-0.321-0.663-0.535-1.309-0.641-1.94v0c-0.141-0.835-0.108-1.662 0.099-2.481 0.206-0.826 0.642-1.484 1.31-1.975v0c0.17 0.005 0.326 0.006 0.467 0.002 0.135-0.002 0.284-0.017 0.449-0.045v0c0.532-0.09 1.048-0.281 1.546-0.575 0.499-0.287 1.032-0.478 1.597-0.573v0c0.171-0.029 0.363-0.011 0.577 0.055v0c0.215-0.171 0.489-0.329 0.823-0.473 0.334-0.144 0.652-0.282 0.954-0.415 0.301-0.139 0.573-0.313 0.815-0.522 0.234-0.215 0.359-0.476 0.375-0.783v0c0.193 0.103 0.391 0.154 0.594 0.153 0.209-0.001 0.413-0.019 0.609-0.052v0c0.434-0.073 0.87-0.231 1.31-0.474 0.439-0.243 0.759-0.571 0.96-0.983v0c0.281 0.223 0.635 0.299 1.062 0.226v0c0.467-0.079 0.906-0.281 1.318-0.607 0.405-0.325 0.824-0.524 1.258-0.597v0c0.335-0.056 0.605 0.02 0.809 0.229v0c0.317-0.364 0.712-0.671 1.184-0.92 0.472-0.249 0.953-0.485 1.442-0.709 0.497-0.219 0.955-0.448 1.375-0.688 0.418-0.246 0.737-0.54 0.957-0.882v0c0.17 0.005 0.439-0.023 0.807-0.085v0c0.565-0.095 1.092-0.262 1.579-0.499 0.494-0.239 0.996-0.469 1.506-0.69v0l1.029-0.275c0.264-0.078 0.493-0.201 0.688-0.369 0.194-0.175 0.397-0.331 0.611-0.468 0.22-0.138 0.449-0.262 0.688-0.369 0.239-0.108 0.542-0.176 0.909-0.204v0c0.729-0.569 1.524-1.048 2.384-1.436 0.855-0.381 1.734-0.742 2.637-1.084 0.902-0.341 1.783-0.713 2.641-1.114 0.859-0.402 1.643-0.919 2.355-1.553v0l0.148-0.025c0.671-0.113 1.309-0.339 1.914-0.677 0.611-0.346 1.166-0.764 1.665-1.254v0c0.104 0.016 0.209 0.016 0.314-0.002v0l0.345-0.058c0.934-0.157 1.818-0.445 2.654-0.863 0.837-0.411 1.738-0.698 2.704-0.861v0c0.565-0.095 1.028-0.099 1.388-0.011 0.361 0.095 0.691 0.228 0.99 0.401 0.306 0.172 0.624 0.331 0.953 0.478 0.337 0.153 0.747 0.239 1.23 0.26v0c0.391 0.516 0.641 1.099 0.751 1.749 0.11 0.651 0.237 1.305 0.382 1.964zM124.247-30.156v0c0.216 1.908 0.3 3.774 0.252 5.597-0.048 1.824-0.203 3.686-0.464 5.588v0c-0.399 0.387-0.62 0.838-0.662 1.353-0.043 0.508-0.159 0.994-0.348 1.458v0c-0.157 0.393-0.38 0.818-0.671 1.274-0.283 0.461-0.601 0.94-0.955 1.437-0.353 0.496-0.705 1.002-1.056 1.518-0.344 0.515-0.625 1.024-0.843 1.525v0c-0.969 0.452-1.609 1.256-1.921 2.411v0c-0.514 0.259-1.042 0.547-1.583 0.864-0.541 0.316-0.894 0.789-1.057 1.418v0c-1.173 0.784-2.256 1.648-3.249 2.592-1 0.945-2.102 1.791-3.306 2.538v0c-0.153 0.185-0.335 0.333-0.543 0.444-0.209 0.111-0.417 0.228-0.624 0.352-0.207 0.124-0.392 0.272-0.554 0.445-0.168 0.173-0.256 0.378-0.263 0.614v0c-0.139 0.016-0.234 0.003-0.286-0.038-0.059-0.047-0.173-0.078-0.342-0.092v0c-0.348 0.241-0.481 0.578-0.399 1.011v0c-0.14-0.051-0.326-0.064-0.558-0.037v0c-0.404 0.046-0.784 0.216-1.139 0.511-0.362 0.296-0.661 0.595-0.895 0.896v0c-0.382 0.244-0.823 0.496-1.324 0.754-0.493 0.264-0.829 0.644-1.008 1.141v0c-0.155-0.123-0.365-0.17-0.63-0.14v0c-0.305 0.035-0.612 0.163-0.922 0.386-0.317 0.224-0.545 0.464-0.683 0.722v0c-0.47 0.053-0.909 0.177-1.317 0.37-0.4 0.2-0.81 0.4-1.23 0.602-0.42 0.202-0.831 0.393-1.233 0.573-0.402 0.18-0.839 0.296-1.309 0.349v0c-0.272 0.031-0.481-0.013-0.629-0.13-0.147-0.117-0.33-0.218-0.547-0.3v0c-0.15 0.158-0.424 0.343-0.823 0.556-0.405 0.214-0.707 0.332-0.906 0.354v0c-0.371 0.042-0.738 0.033-1.1-0.026-0.362-0.06-0.737-0.135-1.122-0.225v0l-1.094-0.239c-0.349-0.061-0.728-0.085-1.135-0.073v0c-0.328-0.231-0.717-0.469-1.168-0.713-0.456-0.237-0.88-0.279-1.272-0.127v0c-0.223-0.485-0.524-0.893-0.904-1.226-0.373-0.333-0.795-0.624-1.266-0.873v0c-0.108-0.062-0.224-0.109-0.349-0.142-0.125-0.039-0.225-0.089-0.298-0.147v0c-0.177-0.081-0.349-0.266-0.516-0.556-0.173-0.282-0.342-0.414-0.507-0.395v0c-0.033 0.004-0.074 0.025-0.124 0.064-0.043 0.038-0.08 0.059-0.114 0.063v0c-0.101-0.297-0.237-0.58-0.408-0.849-0.165-0.27-0.42-0.419-0.765-0.447v0c-0.364-0.844-0.645-1.695-0.842-2.551-0.205-0.862-0.44-1.721-0.705-2.578v0c-0.096-0.257-0.209-0.573-0.339-0.947-0.124-0.382-0.203-0.722-0.236-1.02v0c-0.057-0.503-0.053-1.118 0.013-1.843 0.073-0.719 0.129-1.353 0.167-1.901v0c0.184-1.993 0.51-3.942 0.978-5.848 0.462-1.904 0.985-3.805 1.568-5.702 0.583-1.904 1.194-3.792 1.835-5.663 0.633-1.876 1.216-3.777 1.749-5.703v0c0.132-0.015 0.211-0.061 0.236-0.137v0l0.121-0.265c0.055-0.107 0.105-0.196 0.151-0.269 0.039-0.071 0.144-0.117 0.317-0.137v0l-0.017-0.149c-0.056-0.202-0.036-0.375 0.061-0.52 0.104-0.146 0.106-0.368 0.006-0.665v0c0.468-0.664 0.845-1.394 1.13-2.191 0.279-0.796 0.572-1.588 0.879-2.374 0.301-0.779 0.63-1.544 0.988-2.296 0.357-0.758 0.841-1.427 1.453-2.006v0l-0.039-0.348c-0.052-0.162-0.065-0.338-0.04-0.529 0.032-0.191 0.127-0.33 0.285-0.414v0c0.541-0.672 0.976-1.335 1.305-1.99 0.336-0.649 0.679-1.288 1.03-1.918 0.357-0.638 0.764-1.247 1.222-1.829 0.465-0.576 1.073-1.128 1.825-1.656v0c0.352-0.208 0.592-0.49 0.72-0.846 0.134-0.357 0.326-0.617 0.576-0.78v0c0.125-0.081 0.263-0.137 0.413-0.168 0.15-0.037 0.288-0.096 0.413-0.177v0c0.551-0.23 1.1-0.504 1.648-0.821 0.541-0.316 1.13-0.51 1.766-0.582v0c0.802-0.091 1.44 0.065 1.915 0.467 0.468 0.403 0.865 0.912 1.189 1.526 0.324 0.607 0.608 1.253 0.853 1.936 0.253 0.689 0.589 1.262 1.01 1.718v0c1.015-0.041 2.051-0.048 3.107-0.02 1.057 0.035 2.014 0.362 2.869 0.983v0c0.07 0.026 0.155 0.033 0.254 0.022v0c0.172-0.019 0.25-0.099 0.235-0.238-0.015-0.132 0.06-0.208 0.226-0.227v0l0.149-0.017c1.075 0.489 2.114 1.042 3.117 1.66 1.009 0.617 2.008 1.262 2.996 1.935v0c0.187 0.113 0.38 0.219 0.58 0.317 0.192 0.092 0.367 0.217 0.525 0.373v0c0.188 0.18 0.374 0.397 0.557 0.652 0.182 0.248 0.351 0.463 0.506 0.647v0c2.007 2.732 3.485 5.744 4.435 9.038v0c0.107 0.357 0.207 0.701 0.298 1.033 0.091 0.332 0.154 0.647 0.188 0.945v0c0.035 0.305 0.123 0.489 0.264 0.554 0.142 0.071 0.229 0.242 0.259 0.514zM120.662-27.154v0c-0.152-1.345-0.467-2.617-0.945-3.817v0c0.165-0.086 0.262-0.207 0.291-0.365 0.036-0.158 0.044-0.32 0.025-0.486v0l-0.028-0.249-0.732-1.044c-0.086-0.467-0.229-0.893-0.427-1.28-0.197-0.38-0.418-0.761-0.663-1.143-0.244-0.382-0.482-0.764-0.713-1.147-0.23-0.376-0.405-0.796-0.525-1.259v0c-0.582-0.343-1.115-0.753-1.599-1.228-0.476-0.469-0.912-0.97-1.307-1.502v0c-0.25-0.072-0.476-0.117-0.68-0.134-0.209-0.01-0.299-0.184-0.27-0.523v0c-0.622-0.104-1.193-0.288-1.713-0.551-0.526-0.262-1.047-0.569-1.563-0.92v0c-0.787-0.079-1.573-0.201-2.357-0.367-0.784-0.166-1.56-0.206-2.328-0.119v0c-0.543 0.062-1.052 0.223-1.525 0.485v0c0.196 0.246 0.311 0.528 0.347 0.846 0.036 0.318 0.104 0.626 0.206 0.923v0c1.103 0.143 1.833 0.722 2.189 1.734v0c-0.16 0.125-0.298 0.269-0.415 0.43-0.115 0.167-0.226 0.317-0.331 0.45-0.106 0.133-0.236 0.258-0.39 0.376-0.154 0.118-0.351 0.191-0.589 0.218v0c-0.47 0.053-0.841 0.011-1.112-0.126-0.271-0.144-0.669-0.132-1.193 0.035v0c-0.627-0.439-1.24-0.906-1.84-1.402-0.6-0.496-1.258-0.921-1.976-1.276v0c-0.144-0.326-0.338-0.613-0.58-0.86-0.249-0.24-0.496-0.474-0.744-0.701-0.247-0.227-0.48-0.472-0.697-0.736-0.218-0.264-0.348-0.581-0.39-0.952v0c-0.026-0.232-0.029-0.403-0.008-0.513v0c-0.206-0.044-0.359-0.06-0.458-0.048v0c-0.272 0.031-0.513 0.152-0.724 0.363-0.217 0.212-0.471 0.369-0.762 0.469v0c-0.18 0.839-0.488 1.588-0.923 2.248-0.435 0.66-0.889 1.305-1.36 1.936-0.472 0.63-0.898 1.283-1.278 1.956-0.387 0.674-0.628 1.473-0.725 2.397v0c-0.921 1.466-1.739 3.099-2.455 4.897-0.715 1.799-1.217 3.529-1.505 5.192v0c-0.67 0.955-1.169 1.944-1.496 2.967-0.327 1.023-0.457 2.125-0.39 3.305v0c-0.154 0.125-0.271 0.276-0.352 0.453v0l-0.393 1.061c-0.047 0.18-0.151 0.329-0.311 0.448v0l0.028 0.248c0.031 0.272 0.009 0.522-0.066 0.752-0.075 0.23-0.16 0.451-0.257 0.663-0.09 0.211-0.178 0.416-0.263 0.614-0.078 0.197-0.104 0.411-0.078 0.643v0c0.031 0.272 0.128 0.536 0.291 0.792v0c-0.357 0.107-0.577 0.327-0.66 0.658-0.083 0.331-0.211 0.624-0.383 0.879v0c-0.011 1.088-0.023 2.197-0.036 3.325-0.007 1.121 0.05 2.218 0.171 3.292v0c0.14 1.239 0.419 2.482 0.835 3.73v0c0.332 0.264 0.638 0.568 0.919 0.912 0.274 0.345 0.555 0.668 0.844 0.971 0.29 0.309 0.602 0.573 0.935 0.79 0.327 0.218 0.745 0.332 1.256 0.341v0c0.027 0.238 0.096 0.402 0.207 0.49 0.117 0.087 0.218 0.21 0.303 0.368v0c0.729 0.159 1.49 0.271 2.282 0.335 0.785 0.059 1.565 0.044 2.34-0.043v0c0.537-0.061 1.072-0.189 1.607-0.384 0.541-0.196 0.971-0.516 1.29-0.961v0c1.708-0.261 3.368-0.858 4.98-1.792 1.606-0.927 3.065-1.907 4.377-2.941v0l1.054-0.119c0.314-0.545 0.721-1.008 1.221-1.386 0.501-0.379 1.021-0.733 1.561-1.063v0c0.098-0.085 0.226-0.17 0.383-0.254 0.158-0.085 0.283-0.166 0.375-0.244v0c0.341-0.307 0.684-0.651 1.031-1.033 0.353-0.382 0.711-0.745 1.074-1.088v0c0.619-0.58 1.252-1.145 1.902-1.694 0.649-0.55 1.271-1.13 1.865-1.741 0.595-0.611 1.152-1.261 1.672-1.951 0.512-0.689 0.927-1.44 1.244-2.254v0c0.199-0.023 0.351-0.1 0.457-0.233 0.106-0.133 0.194-0.27 0.265-0.412 0.064-0.141 0.151-0.269 0.259-0.382 0.108-0.113 0.278-0.182 0.509-0.209v0c-0.035-0.305-0.005-0.573 0.09-0.805 0.094-0.232 0.204-0.449 0.329-0.651 0.131-0.203 0.264-0.396 0.397-0.578 0.134-0.183 0.251-0.418 0.353-0.705v0l-0.159-1.411c0.438-0.929 0.728-1.894 0.869-2.896 0.141-1.002 0.155-2.007 0.041-3.014zM182.528-5.491l0.051 0.149c0.002 0.273-0.089 0.461-0.275 0.563-0.186 0.102-0.227 0.339-0.124 0.711v0c-0.266 0.036-0.498 0.171-0.696 0.406-0.205 0.242-0.44 0.364-0.707 0.366v0c-0.173 0.002-0.311-0.081-0.412-0.246v0c-0.065 0.234-0.19 0.402-0.376 0.503-0.186 0.102-0.378 0.19-0.577 0.266-0.206 0.069-0.409 0.154-0.608 0.255-0.199 0.102-0.331 0.253-0.396 0.454v0l-0.26 0.002c-0.407 0.004-0.715 0.176-0.925 0.518-0.217 0.342-0.479 0.514-0.786 0.517v0c-0.1 0.001-0.167-0.015-0.2-0.048v0c-0.173 0.035-0.239 0.145-0.197 0.332 0.035 0.18-0.017 0.307-0.157 0.381v0l-0.25 0.002c-0.88 0.008-1.772 0.199-2.675 0.574-0.91 0.381-1.826 0.813-2.748 1.295-0.929 0.482-1.872 0.937-2.828 1.365-0.956 0.429-1.924 0.717-2.903 0.866v0c-0.205 0.202-0.45 0.364-0.735 0.487-0.286 0.123-0.598 0.219-0.938 0.288-0.333 0.07-0.659 0.149-0.978 0.239-0.319 0.083-0.598 0.229-0.836 0.437v0c-0.839 0.074-1.681 0.232-2.526 0.473-0.844 0.248-1.679 0.485-2.503 0.713-0.825 0.221-1.666 0.412-2.525 0.572-0.859 0.161-1.728 0.212-2.609 0.153v0c-0.265 0.202-0.56 0.365-0.886 0.488-0.319 0.123-0.611 0.285-0.875 0.488v0c-1.388-0.188-2.766-0.325-4.134-0.413-1.368-0.094-2.713-0.319-4.036-0.674v0c-0.001-0.107-0.035-0.176-0.102-0.209-0.067-0.033-0.144-0.055-0.231-0.068-0.08-0.019-0.154-0.052-0.221-0.098-0.074-0.053-0.075-0.146-0.002-0.28v0c-0.306 0.103-0.575 0.155-0.809 0.157v0c-0.34 0.003-0.671-0.077-0.992-0.241-0.322-0.17-0.66-0.354-1.015-0.551-0.362-0.197-0.727-0.387-1.095-0.57-0.375-0.183-0.782-0.273-1.223-0.269v0c-0.269-0.271-0.515-0.539-0.737-0.803-0.222-0.271-0.389-0.607-0.499-1.006v0c-0.134-0.039-0.277-0.038-0.43 0.004-0.146 0.035-0.273 0.052-0.379 0.053v0c-0.2 0.002-0.301-0.067-0.302-0.207v0c-0.711-0.5-1.223-1.036-1.535-1.606-0.305-0.571-0.648-1.224-1.027-1.961v0c-0.102-0.239-0.231-0.435-0.386-0.587-0.155-0.145-0.266-0.321-0.334-0.527v0c-0.136-0.332-0.223-0.685-0.26-1.058-0.043-0.373-0.073-0.736-0.089-1.089-0.023-0.353-0.076-0.706-0.16-1.059-0.09-0.359-0.253-0.688-0.489-0.985v0c0.055-1.287 0.187-2.572 0.396-3.854 0.208-1.289 0.474-2.574 0.795-3.857v0c0.135-0.575 0.283-1.133 0.445-1.674 0.162-0.541 0.307-1.099 0.435-1.674v0c0.038-0.207 0.097-0.351 0.177-0.432 0.086-0.087 0.162-0.148 0.228-0.182v0l0.199-0.152c0.066-0.067 0.115-0.171 0.147-0.311v0l0.394-1.723c0.257-1.116 0.6-2.199 1.031-3.25 0.431-1.051 1.015-2.019 1.755-2.906v0c0.059-0.841 0.245-1.642 0.558-2.405 0.313-0.763 0.67-1.509 1.07-2.239 0.4-0.73 0.797-1.451 1.191-2.161 0.4-0.717 0.717-1.48 0.949-2.289v0l-0.061-0.109c-0.001-0.133 0.075-0.207 0.228-0.222 0.153-0.021 0.263-0.032 0.33-0.033v0c0.029-0.54 0.151-1.005 0.368-1.394 0.217-0.389 0.45-0.754 0.7-1.096 0.25-0.342 0.484-0.708 0.7-1.096 0.217-0.389 0.339-0.853 0.368-1.393v0c0.637-0.379 1.182-0.851 1.637-1.415 0.448-0.557 0.88-1.135 1.295-1.732 0.421-0.59 0.866-1.168 1.334-1.732 0.462-0.564 1.031-1.016 1.708-1.355v0c0.165-0.208 0.212-0.495 0.143-0.861v0c1.04-0.789 2.113-1.492 3.221-2.109 1.108-0.617 2.148-1.336 3.121-2.158v0l1.82-0.017c0.437-0.337 0.925-0.508 1.465-0.513v0c0.407-0.004 0.804 0.076 1.192 0.24 0.395 0.163 0.77 0.353 1.125 0.57 0.355 0.217 0.721 0.434 1.096 0.65 0.369 0.217 0.74 0.373 1.114 0.47v0c0.378 0.503 0.646 1.084 0.806 1.743 0.153 0.659 0.318 1.274 0.497 1.845v0c-0.298 0.916-0.477 1.854-0.535 2.815-0.058 0.961-0.166 1.915-0.325 2.863v0c-0.238 0.275-0.438 0.574-0.602 0.896-0.17 0.322-0.344 0.643-0.521 0.964-0.184 0.322-0.378 0.627-0.582 0.916-0.197 0.288-0.465 0.521-0.804 0.697v0c-0.258 0.976-0.671 1.756-1.239 2.341-0.568 0.578-1.119 1.257-1.652 2.035v0c-0.504 0.345-1.045 0.519-1.625 0.524v0c-0.467 0.004-0.888-0.102-1.263-0.318-0.375-0.217-0.715-0.5-1.018-0.851-0.31-0.351-0.56-0.738-0.75-1.164-0.19-0.418-0.337-0.83-0.441-1.236v0c0.234-0.709 0.608-1.319 1.124-1.83 0.522-0.511 1.051-1.023 1.586-1.534 0.535-0.511 1.001-1.056 1.395-1.633 0.402-0.577 0.599-1.272 0.592-2.085v0c-0.001-0.067-0.008-0.133-0.022-0.2-0.021-0.066-0.031-0.133-0.032-0.199v0c-0.001-0.14 0.048-0.26 0.147-0.362 0.099-0.101 0.202-0.185 0.308-0.253v0l0.297-0.262c0.099-0.101 0.148-0.218 0.147-0.352v0c-0.001-0.133-0.069-0.266-0.203-0.398v0c-1.279 0.111-2.247 0.337-2.904 0.676-0.657 0.346-1.17 0.724-1.54 1.134-0.363 0.41-0.686 0.809-0.97 1.199-0.29 0.389-0.704 0.67-1.242 0.841v0c-0.098 0.274-0.239 0.505-0.424 0.694-0.178 0.188-0.37 0.373-0.575 0.555-0.198 0.188-0.373 0.403-0.524 0.645-0.151 0.235-0.242 0.522-0.273 0.862v0l-0.91 0.008c-0.131 0.301-0.321 0.6-0.572 0.895-0.251 0.289-0.502 0.568-0.752 0.837-0.251 0.276-0.468 0.574-0.652 0.896-0.184 0.322-0.241 0.669-0.171 1.042v0c-0.372 0.137-0.647 0.356-0.824 0.657-0.184 0.308-0.445 0.564-0.783 0.767v0l0.003 0.31c0.002 0.267-0.045 0.52-0.144 0.761-0.098 0.234-0.112 0.488-0.043 0.761v0c-0.403 0.37-0.696 0.836-0.877 1.398-0.182 0.562-0.37 1.08-0.567 1.555v0c-0.471 0.238-0.788 0.56-0.951 0.968-0.17 0.408-0.252 0.882-0.247 1.423v0c-0.502 0.511-0.95 1.105-1.344 1.782-0.401 0.677-0.758 1.373-1.072 2.089-0.314 0.71-0.604 1.435-0.87 2.178-0.26 0.749-0.54 1.445-0.842 2.088v0l0.014 1.47c-0.468 0.544-0.793 1.18-0.973 1.908-0.18 0.728-0.451 1.381-0.813 1.958v0c-0.07 0.374-0.093 0.744-0.07 1.11 0.023 0.373 0.037 0.746 0.04 1.12v0c0.004 0.4-0.029 0.82-0.099 1.261-0.063 0.441-0.176 0.848-0.339 1.223v0c0.138 0.505 0.243 1.105 0.316 1.797 0.073 0.693 0.199 1.382 0.379 2.067 0.173 0.692 0.415 1.316 0.727 1.874 0.305 0.551 0.745 0.927 1.32 1.128v0c0.147 0.739 0.482 1.299 1.005 1.681 0.53 0.389 1.133 0.697 1.808 0.924 0.675 0.234 1.371 0.438 2.086 0.611 0.708 0.18 1.334 0.421 1.876 0.724v0c0.199-0.102 0.435-0.154 0.709-0.157v0c0.267-0.002 0.51 0.029 0.731 0.094 0.221 0.065 0.468 0.129 0.741 0.193v0c0.473-0.071 1.056-0.109 1.749-0.116 0.687-0.006 1.386-0.039 2.1-0.098 0.706-0.053 1.362-0.152 1.967-0.298 0.605-0.139 1.093-0.396 1.463-0.773v0c0.24-0.002 0.401 0.066 0.482 0.206 0.088 0.133 0.248 0.198 0.482 0.195v0c0.24-0.002 0.596-0.065 1.068-0.189 0.472-0.118 0.961-0.255 1.467-0.413 0.505-0.158 0.984-0.322 1.435-0.493 0.452-0.177 0.78-0.334 0.986-0.469v0c0.1 0.032 0.2 0.048 0.301 0.047v0l0.359-0.003c0.473-0.004 0.909-0.091 1.308-0.262 0.405-0.177 0.845-0.231 1.319-0.161v0c1.546-0.794 3.12-1.475 4.722-2.043 1.595-0.574 3.217-1.089 4.866-1.543v0c0.204-0.302 0.449-0.524 0.734-0.667 0.285-0.136 0.598-0.249 0.937-0.338 0.333-0.083 0.669-0.153 1.008-0.209 0.333-0.056 0.652-0.136 0.958-0.239v0c0.199-0.102 0.375-0.23 0.527-0.385 0.152-0.148 0.348-0.276 0.586-0.385v0c0.232-0.102 0.492-0.171 0.779-0.207 0.286-0.036 0.573-0.082 0.858-0.138 0.286-0.049 0.556-0.125 0.808-0.227 0.252-0.109 0.461-0.281 0.626-0.515v0c0.475 0.196 0.96 0.411 1.456 0.647 0.489 0.229 0.905 0.562 1.249 0.999zM241.813 15.112v0c-0.034 0.365-0.15 0.709-0.347 1.033v0c-0.705 0.309-1.426 0.503-2.164 0.581-0.738 0.085-1.462 0.094-2.172 0.028v0c-0.332-0.031-0.69-0.071-1.073-0.12-0.39-0.056-0.731-0.132-1.024-0.227v0c-0.103-0.043-0.216-0.121-0.34-0.232-0.123-0.112-0.252-0.174-0.384-0.187v0c-0.339-0.032-0.666-0.005-0.982 0.079-0.31 0.092-0.634 0.122-0.972 0.09v0c-0.166-0.015-0.321-0.08-0.464-0.194-0.143-0.114-0.296-0.195-0.459-0.243v0c-0.226-0.095-0.46-0.133-0.703-0.116-0.235 0.011-0.489 0.005-0.761-0.021v0c-0.372-0.035-0.695-0.119-0.971-0.252-0.276-0.126-0.518-0.333-0.725-0.62v0c-0.833-0.185-1.641-0.421-2.425-0.708-0.789-0.295-1.574-0.606-2.353-0.933-0.786-0.328-1.574-0.639-2.364-0.934-0.783-0.294-1.592-0.514-2.429-0.659v0c-0.177-0.258-0.396-0.455-0.658-0.594-0.254-0.144-0.435-0.359-0.542-0.643v0c-0.173-0.016-0.295-0.001-0.366 0.046-0.071 0.04-0.189 0.053-0.355 0.038v0c-0.534-0.519-1.111-0.978-1.73-1.377-0.626-0.4-1.269-0.781-1.931-1.145-0.662-0.37-1.303-0.744-1.924-1.124-0.627-0.38-1.203-0.849-1.727-1.406v0l-0.259-0.025c-0.269 0.008-0.489-0.072-0.66-0.242-0.172-0.17-0.39-0.267-0.656-0.292v0c-0.173-0.016-0.31-0.012-0.413 0.011v0c-0.075-0.275-0.207-0.505-0.397-0.69-0.183-0.191-0.377-0.373-0.582-0.546-0.205-0.166-0.401-0.335-0.585-0.507-0.192-0.172-0.326-0.379-0.404-0.62v0c-0.808-0.383-1.587-0.821-2.338-1.313-0.75-0.499-1.399-1.112-1.948-1.839v0c-0.664-0.129-1.199-0.39-1.604-0.783-0.405-0.393-0.765-0.875-1.08-1.446v0c-0.784-0.348-1.491-0.772-2.121-1.273-0.629-0.501-1.251-1.017-1.864-1.55-0.614-0.526-1.264-1.019-1.951-1.478-0.688-0.453-1.478-0.804-2.372-1.055v0c-0.011-0.242-0.094-0.427-0.249-0.556-0.155-0.135-0.338-0.256-0.549-0.363-0.211-0.107-0.416-0.203-0.616-0.288-0.193-0.085-0.33-0.232-0.411-0.44v0c-0.1-0.009-0.198-0.029-0.296-0.058-0.105-0.023-0.207-0.039-0.306-0.049v0c-0.1-0.009-0.21-0.013-0.331-0.011-0.121 0.009-0.232 0.008-0.331 0v0l0.063-0.145c0.013-0.139-0.019-0.229-0.095-0.27-0.083-0.041-0.19-0.085-0.319-0.13-0.136-0.046-0.251-0.107-0.345-0.183-0.093-0.076-0.129-0.233-0.106-0.472v0l-0.15-0.014c-0.372-0.035-0.701-0.132-0.987-0.293-0.293-0.161-0.622-0.292-0.987-0.394v0c-0.1 0.359-0.167 0.708-0.198 1.046v0l-0.085 0.906c-0.141 1.513-0.121 3.119 0.062 4.817 0.176 1.697 0.558 3.233 1.147 4.607v0c0.678 0.338 1.249 0.749 1.712 1.234 0.464 0.479 0.905 1.025 1.324 1.641v0c-0.052 0.912-0.452 1.648-1.201 2.207-0.749 0.559-1.574 0.797-2.477 0.713v0c-0.504-0.047-0.957-0.217-1.359-0.508-0.395-0.291-0.703-0.685-0.924-1.181v0c-0.206-0.019-0.395 0.003-0.568 0.067-0.174 0.071-0.38 0.095-0.62 0.073v0c-0.1-0.009-0.198-0.035-0.294-0.078v0c-0.285-0.602-0.567-1.138-0.844-1.606-0.278-0.468-0.432-1.075-0.463-1.82v0c-0.356-0.207-0.556-0.531-0.602-0.971-0.039-0.446-0.198-0.819-0.478-1.119v0c0.009-1.526-0.026-3.056-0.104-4.589-0.078-1.534-0.046-3.054 0.095-4.561v0c0.032-0.339 0.08-0.682 0.146-1.031 0.066-0.349 0.133-0.707 0.201-1.076v0c-0.05-0.179-0.128-0.347-0.234-0.504-0.099-0.163-0.177-0.331-0.234-0.504v0c-0.686 0.103-1.398 0.198-2.136 0.282-0.737 0.078-1.474 0.083-2.211 0.015v0c-0.471-0.044-1.035-0.17-1.692-0.379-0.663-0.216-1.164-0.477-1.503-0.783v0c-0.257-0.191-0.424-0.518-0.501-0.981-0.07-0.469-0.09-0.869-0.059-1.201v0c0.053-0.571 0.207-1.142 0.462-1.714 0.254-0.572 0.571-1.061 0.95-1.468v0c1.709-0.517 3.326-1.196 4.851-2.038 1.518-0.842 3.018-1.77 4.498-2.784v0c0.071-0.335 0.163-0.664 0.273-0.989 0.118-0.33 0.194-0.682 0.229-1.053v0c0.037-0.398-0.03-0.793-0.201-1.184v0c0.224-0.18 0.352-0.432 0.383-0.757 0.03-0.319 0.14-0.603 0.33-0.853v0l0.029-0.309c0.012-0.133 0.018-0.266 0.017-0.4-0.008-0.135-0.055-0.276-0.141-0.425v0c0.354-1.286 0.662-2.57 0.923-3.851 0.254-1.282 0.445-2.613 0.573-3.994v0c0.009-0.1 0.095-0.369 0.257-0.81 0.156-0.447 0.258-0.753 0.306-0.915v0c0.212-0.764 0.376-1.522 0.494-2.274 0.124-0.752 0.271-1.508 0.443-2.269v0c0.059-0.269 0.158-0.615 0.298-1.037 0.147-0.428 0.229-0.729 0.244-0.901v0c0.022-0.232-0.007-0.396-0.084-0.49-0.079-0.088-0.142-0.238-0.189-0.449v0c0.271-0.751 0.453-1.521 0.547-2.309 0.094-0.788 0.227-1.566 0.399-2.333v0c0.593-0.179 1.066-0.372 1.42-0.581 0.36-0.201 0.859-0.271 1.496-0.212v0l0.099 0.01c0.035 0.412 0.153 0.804 0.352 1.178 0.206 0.374 0.419 0.749 0.639 1.124 0.213 0.375 0.407 0.734 0.582 1.079 0.169 0.337 0.24 0.655 0.212 0.953v0c-0.053 0.571-0.161 1.19-0.324 1.858-0.162 0.661-0.303 1.274-0.423 1.839v0c-0.314 1.497-0.606 2.97-0.875 4.418-0.27 1.455-0.611 2.926-1.025 4.414v0c0.063 0.475 0.075 0.914 0.038 1.319v0c-0.056 0.604-0.166 1.206-0.33 1.807-0.156 0.595-0.264 1.211-0.323 1.848v0c-0.029 0.305-0.032 0.626-0.01 0.963 0.015 0.343 0.08 0.654 0.195 0.932v0c1.17-0.192 2.253-0.717 3.25-1.574v0c0.145-0.12 0.304-0.283 0.478-0.488 0.166-0.205 0.342-0.366 0.527-0.483v0c0.357-0.241 0.742-0.453 1.154-0.635 0.405-0.183 0.805-0.373 1.198-0.571v0c0.923-0.49 1.825-1.008 2.706-1.555 0.888-0.546 1.778-1.083 2.672-1.609v0c2.658-1.58 5.248-3.246 7.768-4.999 2.52-1.747 4.991-3.608 7.412-5.585v0c0.153-0.562 0.398-0.997 0.735-1.307 0.337-0.31 0.644-0.69 0.92-1.14v0c0.659-0.173 1.246-0.473 1.761-0.9v0c0.2 0.086 0.408 0.149 0.625 0.189 0.218 0.034 0.433 0.061 0.645 0.08 0.219 0.02 0.437 0.051 0.655 0.092 0.218 0.034 0.408 0.112 0.57 0.234v0c-0.014 0.508-0.006 0.964 0.023 1.368 0.029 0.411 0.191 0.818 0.489 1.221v0c-0.006 0.066-0.002 0.134 0.011 0.202 0.014 0.068 0.017 0.136 0.011 0.201v0c-0.035 0.372-0.166 0.664-0.393 0.878-0.221 0.22-0.365 0.498-0.429 0.833v0l-2.873 2.373c-0.951 0.795-1.846 1.662-2.684 2.602v0c-0.269 0.008-0.512 0.069-0.73 0.183-0.212 0.114-0.417 0.239-0.618 0.374-0.2 0.135-0.406 0.26-0.617 0.374-0.218 0.114-0.447 0.193-0.685 0.238v0c-0.68 0.753-1.439 1.422-2.277 2.007-0.831 0.585-1.68 1.142-2.546 1.67-0.86 0.529-1.713 1.069-2.562 1.619-0.848 0.544-1.645 1.155-2.391 1.835v0c-0.735 0.266-1.452 0.598-2.152 0.995-0.699 0.39-1.279 0.902-1.74 1.534v0l-0.259-0.024c-0.166-0.015-0.303 0.015-0.41 0.092-0.108 0.077-0.248 0.107-0.42 0.092v0c-1.96 1.411-3.98 2.722-6.063 3.933-2.082 1.212-4.089 2.557-6.021 4.038v0l-0.118 1.264c0.539 0.392 1.131 0.762 1.774 1.11 0.644 0.348 1.279 0.719 1.905 1.112 0.626 0.4 1.216 0.82 1.771 1.26 0.548 0.446 1.015 0.959 1.403 1.537v0c0.069-0.027 0.154-0.036 0.253-0.026v0c0.305 0.029 0.533 0.14 0.682 0.334 0.155 0.202 0.435 0.288 0.84 0.26v0c0.089 0.551 0.358 0.968 0.807 1.25 0.45 0.276 0.899 0.519 1.348 0.729v0c0.367 0.443 0.703 0.856 1.009 1.239 0.305 0.39 0.772 0.665 1.399 0.824v0c0.054 0.139 0.09 0.293 0.108 0.462 0.017 0.176 0.069 0.335 0.156 0.476v0c0.619 0.259 1.206 0.601 1.762 1.029 0.556 0.427 1.101 0.86 1.637 1.297 0.535 0.438 1.081 0.861 1.639 1.268 0.551 0.413 1.155 0.751 1.813 1.013v0c0.068 0.348 0.238 0.601 0.512 0.761 0.273 0.159 0.48 0.383 0.62 0.671v0l0.906 0.084c0.091 0.176 0.212 0.348 0.364 0.517 0.152 0.168 0.248 0.388 0.29 0.659v0c0.266 0.092 0.559 0.213 0.88 0.364 0.327 0.151 0.619 0.322 0.876 0.513v0c0.09 0.109 0.152 0.232 0.186 0.369 0.04 0.144 0.122 0.273 0.246 0.385v0c0.19 0.185 0.49 0.34 0.9 0.466 0.41 0.125 0.76 0.285 1.05 0.479v0c0.572 0.395 1.125 0.828 1.656 1.3 0.532 0.471 1.102 0.923 1.712 1.355v0l1.863 1.239c0.322 0.204 0.617 0.419 0.884 0.645 0.267 0.226 0.542 0.439 0.824 0.639v0c0.586 0.323 1.217 0.559 1.892 0.709 0.682 0.151 1.296 0.386 1.842 0.705v0c0.163 0.116 0.271 0.253 0.323 0.411 0.052 0.159 0.157 0.296 0.314 0.411v0c0.257 0.191 0.667 0.347 1.232 0.467 0.564 0.126 1.024 0.29 1.38 0.49v0c0.453 0.243 0.896 0.479 1.33 0.707 0.434 0.228 0.874 0.5 1.32 0.816v0c1.003 0.161 1.994 0.37 2.974 0.63 0.974 0.258 1.94 0.519 2.9 0.783 0.96 0.257 1.929 0.498 2.905 0.723 0.983 0.232 1.98 0.376 2.993 0.43v0c-0.007 0.073 0.029 0.12 0.108 0.141 0.084 0.028 0.16 0.045 0.226 0.051v0c0.205 0.387 0.373 0.775 0.504 1.162 0.131 0.387 0.178 0.783 0.14 1.188zM262.317 20.239v0c-0.043 0.297-0.187 0.549-0.433 0.756-0.251 0.2-0.539 0.353-0.865 0.461-0.325 0.108-0.656 0.205-0.991 0.291-0.336 0.086-0.627 0.165-0.873 0.238v0c-0.34-0.258-0.697-0.447-1.07-0.569-0.373-0.121-0.692-0.339-0.957-0.653v0l-0.346-0.05c-0.541-0.078-0.97-0.069-1.287 0.026v0c-0.444-0.239-0.794-0.539-1.052-0.899-0.251-0.36-0.487-0.734-0.707-1.123-0.213-0.388-0.431-0.769-0.653-1.145-0.216-0.368-0.509-0.7-0.877-0.995v0c-0.359-1.756-0.65-3.522-0.872-5.299-0.223-1.77-0.325-3.556-0.307-5.359v0c0.097-0.161 0.177-0.338 0.238-0.532 0.062-0.193 0.105-0.376 0.13-0.547v0c0.019-0.132 0.013-0.278-0.018-0.437-0.024-0.158-0.12-0.267-0.286-0.324v0c0.21-0.239 0.363-0.53 0.459-0.873 0.104-0.349 0.178-0.671 0.221-0.969v0c0.096-0.666 0.106-1.227 0.031-1.683v0c0.229-0.142 0.355-0.407 0.377-0.794 0.022-0.387 0.144-0.649 0.366-0.786v0c-0.083-0.591-0.085-1.157-0.007-1.698v0c0.106-0.732 0.301-1.435 0.587-2.108 0.287-0.679 0.483-1.385 0.588-2.117v0c0.024-0.165 0.038-0.335 0.044-0.509 0.004-0.168 0.001-0.337-0.008-0.507v0c0.249-0.51 0.489-1.031 0.721-1.563 0.225-0.533 0.379-1.084 0.46-1.651v0c0.058-0.402 0.04-0.745-0.053-1.028v0c0.657-1.475 1.188-2.957 1.592-4.448 0.405-1.498 0.803-3.02 1.194-4.566v0c-0.023-0.071-0.049-0.125-0.077-0.163-0.028-0.038-0.038-0.09-0.028-0.156v0c0.025-0.172 0.137-0.293 0.335-0.366 0.192-0.073 0.292-0.248 0.298-0.522v0c-0.454 0.345-0.845 0.767-1.173 1.265-0.328 0.498-0.639 0.999-0.934 1.502-0.295 0.503-0.605 0.997-0.931 1.482-0.325 0.478-0.718 0.89-1.179 1.234v0c-0.086 0.365-0.246 0.699-0.478 1.002-0.233 0.31-0.379 0.666-0.437 1.069v0c-0.033-0.005-0.065-0.019-0.095-0.044-0.031-0.018-0.08-0.032-0.145-0.041v0c-0.132-0.019-0.236 0.05-0.313 0.207-0.078 0.164-0.194 0.198-0.348 0.101v0c-0.983 1.394-2.04 2.743-3.171 4.049-1.125 1.306-2.486 2.288-4.083 2.947v0c-0.249-0.144-0.492-0.233-0.729-0.267v0c-0.435-0.063-0.879 0.001-1.332 0.191-0.452 0.191-0.744 0.277-0.875 0.258v0c-0.337-0.049-0.724-0.283-1.162-0.703-0.431-0.419-0.895-0.682-1.392-0.787v0c-0.481-0.447-0.869-0.887-1.163-1.32-0.294-0.433-0.79-0.734-1.486-0.902v0c-0.367-0.774-0.728-1.51-1.086-2.208-0.357-0.698-0.702-1.388-1.035-2.069-0.326-0.68-0.597-1.393-0.813-2.138-0.216-0.745-0.347-1.566-0.392-2.461v0c0.043-0.061 0.069-0.125 0.078-0.191v0c0.03-0.205-0.047-0.303-0.23-0.296-0.19 0.006-0.268-0.106-0.234-0.337v0l0.051-0.356c0.038-0.264 0.03-0.511-0.024-0.741-0.054-0.23-0.046-0.475 0.025-0.734v0c-0.178-0.403-0.303-0.815-0.377-1.237-0.08-0.422-0.264-0.806-0.552-1.15v0l0.066-0.456c0.029-0.198 0.046-0.391 0.053-0.578 0.013-0.187-0.012-0.362-0.075-0.526-0.064-0.164-0.176-0.275-0.336-0.331v0c0.14-1.206 0.077-2.468-0.191-3.787-0.274-1.319-0.509-2.589-0.703-3.809v0c-0.396 0.832-0.724 1.68-0.984 2.545-0.26 0.865-0.455 1.75-0.585 2.654v0l-0.123 0.851c-0.038 0.264-0.044 0.536-0.017 0.816v0c-0.129 0.15-0.288 0.245-0.475 0.285-0.195 0.046-0.324 0.165-0.386 0.359v0c-0.057 0.16-0.091 0.327-0.102 0.5-0.004 0.168-0.034 0.332-0.091 0.492v0c-0.189 0.795-0.402 1.548-0.64 2.262v0c-0.357 1.073-0.752 2.151-1.184 3.234-0.426 1.084-0.723 2.209-0.892 3.377v0c-0.01 0.066-0.016 0.159-0.02 0.28 0.003 0.122-0.001 0.215-0.011 0.282v0c-0.602 0.391-0.97 0.934-1.104 1.629-0.134 0.695-0.316 1.352-0.547 1.972v0c-0.299 0.907-0.631 1.805-0.996 2.695-0.37 0.883-0.707 1.797-1.012 2.743v0c-0.176 0.52-0.334 1.033-0.475 1.538-0.148 0.511-0.293 1.029-0.436 1.554v0c-0.077 0.299-0.222 0.534-0.435 0.705-0.207 0.172-0.366 0.388-0.478 0.648v0c-0.066 0.226-0.11 0.483-0.131 0.77-0.028 0.286-0.059 0.547-0.093 0.784v0c-0.058 0.402-0.145 0.774-0.262 1.114-0.116 0.34-0.362 0.621-0.738 0.844v0c-0.052 0.875-0.008 1.639 0.134 2.292 0.148 0.655 0.315 1.386 0.501 2.194v0l1.257 0.182-0.028 0.198c-0.049 0.337-0.036 0.648 0.036 0.935 0.081 0.281 0.308 0.432 0.683 0.452v0c-0.052 0.127-0.093 0.293-0.123 0.497v0c-0.043 0.297-0.023 0.579 0.06 0.848 0.076 0.267 0.125 0.557 0.147 0.87v0c-0.826 1.006-1.66 1.721-2.502 2.144-0.849 0.423-1.94 0.538-3.273 0.346v0l-0.812-0.117c-0.088-0.558-0.211-1.105-0.369-1.64-0.165-0.536-0.32-1.07-0.466-1.603-0.145-0.533-0.253-1.067-0.324-1.603-0.076-0.543-0.074-1.098 0.008-1.666v0c0.019-0.132 0.054-0.255 0.104-0.369 0.05-0.114 0.085-0.237 0.104-0.369v0c0.024-0.165-0.028-0.273-0.155-0.325-0.134-0.053-0.179-0.231-0.135-0.535v0c0.033-0.231 0.058-0.45 0.074-0.656 0.009-0.201 0.03-0.42 0.065-0.657v0c0.159-1.102 0.403-2.182 0.73-3.239 0.322-1.065 0.596-2.144 0.821-3.236v0c0.19-0.148 0.304-0.354 0.342-0.618 0.039-0.271 0.156-0.476 0.351-0.616v0l0.05-0.346c0.088-0.607 0.241-1.201 0.46-1.783 0.219-0.581 0.455-1.143 0.708-1.686 0.247-0.544 0.48-1.106 0.698-1.687 0.219-0.581 0.372-1.176 0.46-1.783v0l0.115-0.802c0.033-0.231 0.158-0.324 0.374-0.279 0.215 0.051 0.358-0.056 0.431-0.322v0c0.139-0.451 0.248-0.904 0.327-1.357 0.085-0.446 0.194-0.898 0.327-1.357v0c0.295-0.88 0.608-1.765 0.939-2.653 0.337-0.888 0.573-1.8 0.708-2.737v0l0.023-0.159c0.014-0.099 0.127-0.295 0.338-0.587 0.211-0.293 0.338-0.591 0.381-0.895v0c0.033-0.231 0.015-0.453-0.055-0.665v0c0.028 0.038 0.095 0.064 0.201 0.08v0c0.132 0.019 0.227-0.011 0.285-0.09 0.065-0.078 0.152-0.143 0.261-0.195v0c-0.08-0.146-0.11-0.285-0.091-0.418v0c0.025-0.172 0.074-0.326 0.147-0.463 0.068-0.145 0.115-0.303 0.14-0.475v0c0.033-0.231-0.058-0.413-0.275-0.545v0c0.509-0.681 0.913-1.424 1.211-2.23 0.306-0.811 0.564-1.646 0.776-2.505 0.211-0.852 0.413-1.715 0.606-2.59 0.195-0.881 0.465-1.704 0.811-2.469v0c-0.036-0.214-0.045-0.438-0.024-0.67 0.015-0.24 0.036-0.46 0.064-0.658v0c0.019-0.132 0.023-0.276 0.012-0.433-0.011-0.157 0.026-0.296 0.111-0.418v0c0.01-0.066 0.038-0.146 0.085-0.24v0l0.144-0.293c0.099-0.221 0.177-0.456 0.233-0.704 0.049-0.249 0.113-0.506 0.192-0.77v0c0.176-0.756 0.313-1.538 0.409-2.346 0.102-0.8 0.244-1.598 0.426-2.394v0c-0.08-0.146-0.166-0.27-0.259-0.37-0.088-0.093-0.135-0.228-0.144-0.405v0c0.338-0.429 0.696-0.829 1.073-1.199 0.377-0.37 0.849-0.635 1.418-0.796v0c0.046 0.384 0.286 0.607 0.721 0.67v0c0.198 0.029 0.456 0.015 0.774-0.04 0.311-0.056 0.532-0.162 0.662-0.318v0c0.538 0.286 1.099 0.462 1.683 0.526 0.589 0.072 1.113 0.292 1.571 0.661v0c0.027 0.516 0.087 1.053 0.182 1.612 0.088 0.558 0.249 1.077 0.482 1.555v0c0.01 0.446 0.003 0.984-0.02 1.614-0.023 0.623-0.048 1.266-0.077 1.929-0.028 0.663-0.018 1.294 0.03 1.894 0.054 0.607 0.172 1.096 0.354 1.465v0c-0.054 0.605-0.041 1.22 0.037 1.844 0.085 0.625 0.186 1.229 0.304 1.812 0.125 0.577 0.227 1.111 0.305 1.6 0.084 0.49 0.104 0.887 0.06 1.191v0c-0.038 0.264-0.103 0.433-0.194 0.508-0.098 0.073-0.195 0.204-0.29 0.392v0c0.079 0.389 0.215 0.725 0.41 1.009 0.201 0.285 0.41 0.612 0.627 0.98v0c0.226 1.979 0.611 3.931 1.155 5.855 0.538 1.917 1.258 3.792 2.158 5.626v0c0.292 0.076 0.521 0.196 0.686 0.362 0.166 0.159 0.455 0.234 0.866 0.226v0l-0.05 0.346c-0.049 0.337-0.016 0.58 0.097 0.732v0c0.274 0.248 0.609 0.401 1.005 0.458v0c0.435 0.063 0.797-0.013 1.083-0.228 0.287-0.215 0.573-0.473 0.86-0.775 0.28-0.303 0.559-0.586 0.84-0.848 0.275-0.27 0.621-0.426 1.037-0.467v0l0.014-0.099c0.039-0.271 0.131-0.49 0.277-0.657 0.138-0.162 0.224-0.362 0.258-0.599v0c0.408-0.211 0.739-0.503 0.996-0.877 0.263-0.373 0.506-0.755 0.731-1.147 0.226-0.398 0.474-0.763 0.744-1.095 0.271-0.338 0.608-0.596 1.011-0.774v0c0.676-1.371 1.437-2.628 2.283-3.772 0.851-1.137 1.735-2.289 2.651-3.457v0c0.014-0.099 0.013-0.207-0.004-0.324-0.016-0.124-0.017-0.235-0.002-0.333v0c0.005-0.033 0.06-0.18 0.165-0.441v0c0.214-0.313 0.411-0.608 0.592-0.885 0.176-0.284 0.34-0.604 0.492-0.959v0c0.486-0.987 0.943-1.959 1.371-2.914 0.429-0.962 0.992-1.854 1.689-2.677v0l0.182-1.256c0.774-1.114 1.383-2.323 1.827-3.627 0.443-1.297 0.941-2.555 1.495-3.775v0c0.119-0.36 0.299-0.718 0.539-1.074 0.24-0.356 0.504-0.597 0.791-0.724v0c-0.069-0.219-0.09-0.427-0.061-0.625v0c0.039-0.271 0.117-0.508 0.234-0.714 0.111-0.206 0.216-0.42 0.315-0.642v0c-0.066-0.245-0.072-0.553-0.018-0.922v0c0.068-0.468 0.267-0.891 0.597-1.267 0.325-0.384 0.764-0.604 1.318-0.659v0c0.322 0.148 0.582 0.357 0.778 0.628 0.204 0.265 0.397 0.539 0.579 0.821 0.182 0.282 0.387 0.517 0.615 0.705 0.229 0.188 0.546 0.278 0.951 0.269v0c0.198 0.541 0.307 1.092 0.328 1.653 0.019 0.569-0.013 1.137-0.095 1.704v0c-0.111 0.765-0.291 1.548-0.541 2.347-0.251 0.806-0.42 1.627-0.507 2.463v0c-0.348 0.495-0.622 1.045-0.824 1.649-0.208 0.603-0.408 1.214-0.598 1.834-0.197 0.618-0.405 1.218-0.624 1.799-0.219 0.581-0.535 1.115-0.948 1.601v0c-0.316 1.49-0.637 2.946-0.964 4.367-0.32 1.422-0.702 2.835-1.148 4.239v0l-0.857 2.787c-0.107 0.227-0.214 0.478-0.32 0.751-0.107 0.274-0.175 0.51-0.204 0.709v0c-0.03 0.205-0.044 0.418-0.042 0.64 0.002 0.223 0.081 0.396 0.239 0.52v0c-0.285 0.296-0.511 0.671-0.678 1.124-0.167 0.454-0.338 0.941-0.514 1.462v0l-0.482 1.517c-0.138 0.492-0.336 0.925-0.592 1.298v0l-0.08 0.555c-0.192 1.333-0.624 2.668-1.295 4.006v0l-0.036 0.247c-0.025 0.172-0.056 0.315-0.093 0.431-0.029 0.11-0.056 0.251-0.081 0.423v0c-0.033 0.231 0.006 0.422 0.12 0.573v0c-0.39 0.833-0.769 1.691-1.14 2.573-0.364 0.89-0.669 1.81-0.913 2.758v0c-0.288 1.292-0.496 2.619-0.626 3.982-0.123 1.363-0.477 2.652-1.063 3.867v0c0.111 0.629 0.149 1.298 0.114 2.007v0l-0.096 2.139c-0.035 0.709-0.027 1.401 0.023 2.074 0.057 0.675 0.272 1.262 0.645 1.76v0c0.023 0.071 0.026 0.172 0.007 0.305v0c-0.039 0.271-0.134 0.462-0.285 0.575v0c0.017 0.346 0.092 0.646 0.223 0.901 0.138 0.256 0.274 0.504 0.408 0.746 0.134 0.242 0.24 0.506 0.32 0.794 0.081 0.281 0.092 0.623 0.034 1.025v0c0.211 0.408 0.585 0.751 1.124 1.031 0.538 0.286 1.086 0.571 1.645 0.854 0.559 0.283 1.032 0.617 1.421 1.003 0.383 0.379 0.531 0.868 0.445 1.469zM331.699-32.618v0c-0.073 0.291-0.157 0.583-0.252 0.875-0.088 0.294-0.184 0.565-0.288 0.815v0c-0.139 0.144-0.343 0.161-0.611 0.051-0.27-0.102-0.485-0.174-0.647-0.214v0c-0.162-0.041-0.307-0.05-0.437-0.028-0.129 0.022-0.215 0.114-0.255 0.276v0c-0.049 0.194-0.065 0.327-0.05 0.4v0c-0.25-0.098-0.52-0.2-0.809-0.308-0.289-0.107-0.526-0.27-0.712-0.489v0c-0.483-0.019-0.949 0.001-1.397 0.06-0.456 0.064-0.903 0.143-1.34 0.239-0.445 0.101-0.901 0.178-1.368 0.232-0.467 0.054-0.935 0.039-1.402-0.044v0c-0.374 0.256-0.811 0.407-1.31 0.453-0.501 0.052-1.014 0.081-1.538 0.086-0.524 0.005-1.022 0.044-1.495 0.118-0.472 0.073-0.883 0.255-1.231 0.545v0c-0.742-0.112-1.476-0.105-2.202 0.021-0.728 0.132-1.453 0.28-2.174 0.441-0.723 0.168-1.449 0.318-2.177 0.451-0.726 0.126-1.48 0.142-2.26 0.048v0c-0.245 0.151-0.522 0.257-0.833 0.316-0.311 0.059-0.629 0.109-0.956 0.151-0.327 0.041-0.636 0.094-0.927 0.158-0.298 0.062-0.557 0.189-0.777 0.381v0l-0.097-0.025c-0.129-0.033-0.218-0.089-0.266-0.17-0.055-0.083-0.147-0.14-0.276-0.173v0c-0.097-0.024-0.166-0.025-0.206 0v0c-0.878 0.156-1.758 0.333-2.64 0.53-0.888 0.195-1.805 0.366-2.749 0.512v0c-1.841 0.264-3.693 0.508-5.559 0.732-1.873 0.228-3.714 0.616-5.523 1.163v0c-0.687 1.222-1.318 2.483-1.893 3.782-0.569 1.3-1.308 2.499-2.218 3.596v0l-0.583 2.308c-0.48 0.539-0.864 1.174-1.151 1.906-0.293 0.724-0.526 1.431-0.701 2.123v0c-0.065 0.259-0.115 0.497-0.15 0.715-0.034 0.218-0.08 0.44-0.137 0.666v0c1.009-0.02 2.008-0.081 2.995-0.182 0.98-0.096 1.962-0.161 2.948-0.194v0c0.5-0.046 0.994-0.041 1.482 0.013 0.496 0.05 0.991 0.051 1.484 0.003v0c0.386-0.006 0.8-0.049 1.24-0.13 0.44-0.081 0.858-0.158 1.254-0.23v0c1.09-0.179 2.194-0.302 3.312-0.37 1.116-0.062 2.235-0.041 3.356 0.063v0c0.388-0.177 0.809-0.332 1.262-0.465 0.451-0.127 0.874-0.14 1.269-0.041v0c0.291 0.073 0.524 0.184 0.7 0.332v0c0.637-0.183 1.365-0.312 2.181-0.388 0.822-0.068 1.551 0.013 2.187 0.243v0c0.22-0.192 0.457-0.297 0.709-0.316 0.247-0.027 0.504-0.007 0.769 0.06v0c0.129 0.033 0.25 0.07 0.364 0.112 0.111 0.049 0.248 0.094 0.409 0.135v0c0.382-0.151 0.782-0.225 1.201-0.223 0.419 0.003 0.833 0.021 1.244 0.056 0.411 0.035 0.818 0.042 1.223 0.02 0.404-0.022 0.788-0.124 1.15-0.308v0c0.451 0.148 0.787 0.37 1.007 0.667 0.219 0.303 0.385 0.64 0.498 1.013 0.111 0.379 0.188 0.766 0.232 1.162 0.038 0.395 0.113 0.778 0.226 1.15v0c-0.132 0.249-0.281 0.431-0.448 0.547-0.165 0.11-0.349 0.211-0.551 0.305-0.194 0.088-0.372 0.181-0.535 0.277-0.162 0.097-0.288 0.257-0.379 0.482v0c-1.151-0.291-2.297-0.408-3.438-0.352-1.15 0.06-2.296 0.173-3.438 0.338-1.135 0.167-2.284 0.303-3.445 0.409-1.155 0.107-2.303 0.068-3.446-0.117v0c-0.204 0.127-0.448 0.207-0.731 0.239v0l-0.798 0.056c-0.249 0.006-0.485 0.043-0.708 0.11-0.23 0.066-0.422 0.2-0.576 0.401v0c-0.169-0.146-0.37-0.248-0.603-0.307v0c-0.556-0.14-1.133-0.128-1.732 0.037-0.597 0.159-1.222 0.156-1.875-0.009v0c-0.265-0.067-0.442-0.129-0.53-0.186v0c-0.237 0.257-0.526 0.41-0.87 0.462-0.343 0.051-0.699 0.074-1.07 0.07-0.364-0.002-0.717 0.022-1.06 0.073-0.343 0.051-0.637 0.221-0.881 0.509v0c-0.095-0.058-0.208-0.104-0.337-0.136v0l-0.291-0.074c-0.524-0.132-1.144-0.193-1.862-0.181-0.718 0.011-1.284 0.226-1.699 0.643v0c-0.247-0.138-0.468-0.232-0.662-0.28v0c-0.459-0.116-0.892-0.129-1.3-0.04-0.408 0.09-0.819 0.206-1.233 0.349v0l-1.257 0.405c-0.421 0.141-0.853 0.207-1.298 0.198v0c-1.16 1-2.103 2.243-2.829 3.731-0.72 1.489-1.369 3.065-1.947 4.727-0.58 1.669-1.146 3.327-1.7 4.975-0.562 1.653-1.214 3.135-1.958 4.446v0c0.062 0.573 0.067 1.165 0.015 1.778-0.052 0.613-0.118 1.232-0.2 1.857-0.089 0.624-0.179 1.254-0.272 1.892-0.092 0.637-0.127 1.254-0.106 1.85v0c-0.007 0.734 0.158 1.429 0.495 2.084 0.341 0.664 0.522 1.363 0.543 2.097v0c0.153 0.073 0.318 0.142 0.494 0.208 0.178 0.059 0.364 0.112 0.558 0.161v0c1.183 0.299 2.281 0.332 3.296 0.1 1.013-0.226 1.998-0.575 2.956-1.048 0.952-0.475 1.893-1.004 2.825-1.587 0.931-0.583 1.898-1.061 2.899-1.434v0l0.931 0.235c0.3-0.206 0.567-0.434 0.802-0.684 0.237-0.257 0.489-0.492 0.756-0.707 0.259-0.21 0.544-0.371 0.855-0.485 0.304-0.116 0.662-0.156 1.072-0.121v0c0.221-0.467 0.545-0.784 0.972-0.951 0.429-0.174 0.774-0.506 1.036-0.997v0c0.056 0.049 0.133 0.085 0.23 0.11v0c0.265 0.067 0.478 0.052 0.64-0.045v0l0.911-0.502c0.325-0.2 0.678-0.382 1.056-0.548 0.372-0.167 0.732-0.327 1.081-0.481v0c1.123-0.445 2.245-0.884 3.364-1.316 1.12-0.432 2.186-0.992 3.199-1.678v0c0.024 0.04 0.069 0.069 0.133 0.085v0c0.259 0.065 0.457 0.029 0.594-0.108 0.144-0.135 0.386-0.126 0.725 0.029v0c0.275-0.247 0.533-0.505 0.773-0.774 0.24-0.269 0.457-0.572 0.653-0.908v0l1.521 0.59c0.506 0.203 1.02 0.371 1.544 0.503v0c0.162 0.041 0.319 0.07 0.473 0.089 0.152 0.025 0.302 0.018 0.449-0.021v0c0.236 0.727 0.281 1.446 0.135 2.159-0.144 0.706-0.239 1.422-0.284 2.146v0c-0.065-0.016-0.104-0.037-0.119-0.061-0.01-0.016-0.047-0.032-0.111-0.049v0c-0.168-0.042-0.337-0.027-0.507 0.047-0.178 0.079-0.369 0.182-0.573 0.309v0l-0.617 0.36c-0.202 0.121-0.385 0.216-0.546 0.285v0c-0.413 0.136-0.839 0.245-1.279 0.327-0.44 0.081-0.865 0.173-1.277 0.276-0.406 0.111-0.809 0.263-1.209 0.458-0.4 0.195-0.751 0.481-1.052 0.858v0c-0.718 0.094-1.419 0.213-2.101 0.357-0.681 0.137-1.341 0.301-1.98 0.49v0c-0.202 0.121-0.393 0.248-0.571 0.382-0.17 0.129-0.312 0.282-0.426 0.46v0c-0.961 0.074-1.8 0.333-2.517 0.777-0.724 0.443-1.467 0.936-2.23 1.479v0l-0.036-0.06c-0.233-0.059-0.392-0.013-0.478 0.137-0.093 0.149-0.292 0.15-0.599 0.003v0c-0.8 0.527-1.618 1.001-2.453 1.423-0.834 0.415-1.687 0.826-2.559 1.231-0.866 0.407-1.738 0.823-2.615 1.248-0.871 0.426-1.703 0.904-2.497 1.432v0c-0.459 0.022-0.911 0.083-1.356 0.184-0.443 0.094-0.812 0.314-1.105 0.659v0l-0.146-0.037c-0.362-0.091-0.638-0.075-0.827 0.049-0.189 0.124-0.415 0.294-0.675 0.51v0c-0.726-0.011-1.476-0.008-2.251 0.01-0.766 0.013-1.528-0.076-2.284-0.268v0c-0.524-0.132-0.997-0.355-1.42-0.667-0.428-0.321-0.822-0.692-1.183-1.114-0.368-0.423-0.693-0.863-0.977-1.319-0.285-0.45-0.551-0.882-0.797-1.295v0c-0.029-0.702-0.11-1.444-0.242-2.227-0.132-0.783-0.115-1.504 0.051-2.163v0c0.041-0.162 0.103-0.311 0.185-0.449 0.088-0.129 0.149-0.262 0.183-0.397v0c0.057-0.226 0.007-0.342-0.149-0.347-0.157-0.005-0.243-0.113-0.259-0.323v0c0.019-0.346 0.073-0.724 0.163-1.135 0.085-0.419 0.14-0.814 0.165-1.186v0c0.094-0.781 0.165-1.581 0.214-2.4 0.05-0.826 0.09-1.638 0.12-2.435v0c0.146-0.032 0.278-0.108 0.398-0.229 0.115-0.129 0.241-0.245 0.377-0.349v0c-0.036-0.291-0.054-0.602-0.054-0.931-0.006-0.331 0.033-0.662 0.117-0.992v0c0.165-0.653 0.535-1.082 1.108-1.288v0c0.057-0.226 0.042-0.412-0.044-0.558-0.081-0.144-0.088-0.345-0.023-0.604v0c0.016-0.065 0.087-0.25 0.212-0.554 0.13-0.297 0.283-0.63 0.459-0.999 0.184-0.373 0.353-0.732 0.509-1.078 0.156-0.346 0.267-0.579 0.331-0.7v0c0.613-1.447 1.184-2.878 1.713-4.291 0.537-1.418 1.137-2.828 1.8-4.228v0c-0.264-0.342-0.63-0.651-1.097-0.927-0.473-0.278-0.774-0.57-0.902-0.877v0c-0.103-0.274-0.158-0.6-0.165-0.981-0.012-0.388 0.015-0.715 0.082-0.979v0c0.24-0.95 0.81-1.614 1.71-1.992 0.895-0.386 1.781-0.52 2.659-0.402v0c0.715-1.036 1.331-2.126 1.846-3.267 0.515-1.142 0.99-2.301 1.425-3.477v0l1.318-3.587c0.451-1.213 0.958-2.392 1.522-3.535v0l-0.291-0.073c-0.653-0.165-1.317-0.229-1.994-0.194-0.671 0.044-1.333-0.017-1.985-0.182v0l-0.097-0.024c-0.759-0.996-1.007-2.018-0.743-3.065v0c0.157-0.621 0.443-1.208 0.858-1.764v0c0.574-0.068 1.115-0.21 1.624-0.425 0.51-0.222 1.028-0.449 1.554-0.681 0.534-0.236 1.063-0.426 1.587-0.568 0.526-0.149 1.075-0.186 1.647-0.11v0c0.305-0.934 0.705-1.84 1.202-2.719 0.505-0.883 0.877-1.8 1.118-2.75v0c0.051-0.2 0.091-0.4 0.12-0.599 0.036-0.197 0.047-0.404 0.033-0.621v0c0.3-0.234 0.533-0.505 0.7-0.813 0.161-0.31 0.286-0.643 0.376-0.998v0c0.1-0.394 0.174-0.785 0.224-1.171 0.045-0.394 0.079-0.778 0.104-1.149v0c0.332-0.061 0.596-0.142 0.794-0.244 0.199-0.108 0.389-0.208 0.57-0.299 0.183-0.098 0.4-0.167 0.651-0.207 0.257-0.038 0.599-0.003 1.026 0.104v0c0.621 0.157 1.12 0.413 1.497 0.77 0.384 0.358 0.688 0.775 0.911 1.251 0.232 0.471 0.408 0.983 0.53 1.537 0.122 0.553 0.233 1.104 0.336 1.652v0c-0.156 0.346-0.368 0.571-0.635 0.676-0.275 0.109-0.526 0.273-0.753 0.49v0c-0.068 0.54-0.129 1.057-0.185 1.552-0.055 0.488-0.18 0.986-0.377 1.493v0c0.287 0.251 0.58 0.414 0.876 0.49v0c0.491 0.124 0.974 0.105 1.448-0.058 0.474-0.162 0.849-0.449 1.125-0.86v0l0.107 0.027c0.097 0.024 0.176 0.079 0.237 0.163 0.068 0.086 0.166 0.145 0.296 0.177v0l0.203 0.052c0.439-0.24 0.894-0.396 1.367-0.47 0.472-0.073 0.958-0.133 1.458-0.178 0.5-0.046 0.992-0.104 1.478-0.174 0.492-0.068 0.969-0.202 1.431-0.402v0c0.174 0.154 0.375 0.26 0.601 0.317v0c0.33 0.083 0.667 0.096 1.012 0.039 0.343-0.051 0.682-0.113 1.016-0.187 0.327-0.069 0.682-0.127 1.065-0.175 0.375-0.043 0.757-0.015 1.145 0.083v0c0.071 0.018 0.153 0.049 0.245 0.093 0.094 0.037 0.173 0.064 0.237 0.08v0c0.233 0.059 0.386 0.011 0.459-0.142 0.075-0.16 0.112-0.309 0.112-0.446v0c1.112 0.006 2.096-0.065 2.953-0.213 0.857-0.155 1.819-0.342 2.885-0.561v0c0.008-0.032 0.045-0.04 0.109-0.024v0c0.097 0.024 0.149 0.093 0.155 0.204 0.008 0.105 0.004 0.19-0.013 0.255v0c0.225-0.046 0.373-0.184 0.445-0.414 0.077-0.221 0.201-0.4 0.372-0.535v0c0.119 0.071 0.296 0.137 0.528 0.195v0c0.291 0.073 0.609 0.081 0.953 0.024 0.343-0.051 0.683-0.12 1.022-0.206 0.34-0.093 0.671-0.167 0.995-0.223 0.33-0.054 0.64-0.045 0.931 0.029v0c0.265 0.067 0.462 0.185 0.591 0.355v0c0.225-0.046 0.457-0.136 0.697-0.267 0.24-0.132 0.476-0.169 0.708-0.11v0c0.065 0.016 0.119 0.047 0.163 0.092 0.037 0.044 0.084 0.09 0.14 0.139v0c0.209-0.119 0.397-0.209 0.563-0.271 0.173-0.059 0.289-0.205 0.348-0.438v0c1.248 0.178 2.437 0.192 3.568 0.045 1.139-0.153 2.27-0.451 3.392-0.897v0c0.339 0.154 0.669 0.317 0.991 0.488 0.329 0.166 0.672 0.293 1.028 0.383v0c0.109 0.413 0.199 0.82 0.269 1.223 0.07 0.403 0.388 0.655 0.953 0.757v0c-0.004 0.178-0.024 0.365-0.059 0.562-0.031 0.205-0.067 0.389-0.108 0.55z" opacity="1" transform="matrix(1,0,0,1,0,0)" fill="#3a5874" class="undefined-text-0" data-fill-palette-color="primary" id="text-0"></path></svg></g></svg></g></svg></g></svg></g><g transform="matrix(1,0,0,1,93.68213202951526,0)"><svg viewBox="0 0 208.15573594096946 161.71921771218493" height="161.71921771218493" width="208.15573594096946"><g><svg xmlns="http://www.w3.org/2000/svg" xmlns:xlink="http://www.w3.org/1999/xlink" version="1.1" x="0" y="0" viewBox="5 15 90.1 70" style="enable-background:new 0 0 100 100;" xml:space="preserve" height="161.71921771218493" width="208.15573594096946" class="icon-icon-0" data-fill-palette-color="accent" id="icon-0"><path d="M51.6 42.9l-7.9 7.9-2.5-2.5-0.4-0.4c-0.5-0.5-1.3-0.5-1.8 0s-0.5 1.3 0 1.8l3.8 3.8c0.2 0.2 0.6 0.4 0.9 0.4s0.6-0.1 0.9-0.4l8.8-8.8c0.5-0.5 0.5-1.3 0-1.8S52.1 42.4 51.6 42.9z" fill="#3a5874" data-fill-palette-color="accent"></path><path d="M91.3 52.5H78.8V18.8c0-2.1-1.7-3.8-3.8-3.8H35c-1 0-2 0.4-2.7 1.1l-10 10c-0.7 0.7-1.1 1.6-1.1 2.7v27.2L6.1 71.1C5.4 71.8 5 72.7 5 73.8v7.5C5 83.3 6.7 85 8.8 85h65c1 0 2-0.4 2.7-1.1l17.5-17.5c0.7-0.7 1.1-1.6 1.1-2.7v-7.5C95 54.2 93.3 52.5 91.3 52.5zM72 20l-7.5 7.5H48l7.5-7.5H72zM73.8 21.8V55v3.2l-7.5 7.5V29.3L73.8 21.8zM35.5 20H52l-7.5 7.5H28L35.5 20zM26.3 57V30h37.5v37.5H26.3V57zM15 80h-5v-5h5V80zM36.3 80h-17l5-5h12V80zM17.5 78.2V75h3.2L17.5 78.2zM43.8 80h-5v-5h5V80zM65 80H48l5-5h12V80zM46.3 78.2V75h3.2L46.3 78.2zM72.5 80h-5v-5h5V80zM73.2 72.5H11.8l12-12v8.2c0 0.7 0.6 1.3 1.3 1.3h40c0 0 0 0 0 0 0.2 0 0.3 0 0.5-0.1 0.2-0.1 0.3-0.2 0.4-0.3l10-10c0.2-0.2 0.4-0.6 0.4-0.9v-1.3h12L73.2 72.5zM90 63.2l-15 15v-4l15-15V63.2z" fill="#3a5874" data-fill-palette-color="accent"></path></svg><g></g></g></svg></g><g></g></svg></g></svg><rect width="395.52" height="294.983524323457" fill="none" stroke="none" visibility="hidden"></rect></g></svg></g></svg>